<?xml version="1.0" encoding="UTF-8"?>
<svg id="Layer_2" data-name="Layer 2" xmlns="http://www.w3.org/2000/svg" viewBox="0 0 287.57 274.3">
  <defs>
    <style>
      .cls-1 {
        fill: #000000;
      }

      .cls-1, .cls-2 {
        stroke-width: 0px;
      }

      .cls-2 {
        fill: #ea008a;
      }
    </style>
  </defs>
  <g id="Artboard_8_copy_8" data-name="Artboard 8 copy 8">
    <g id="Logo_" data-name="Logo!">
      <g>
        <polygon class="cls-1" points="286.16 270.47 251.78 271.32 216.22 273.77 180.65 272.67 145.09 271.24 109.52 270.6 73.96 271.69 38.38 274.3 3.34 271.09 0 233.1 4.6 194.62 2.35 156.14 5.29 117.66 4.33 79.18 .94 40.69 2.69 2.09 38.38 4.93 73.94 3.36 109.5 4.84 145.07 .64 180.64 3.45 216.2 0 251.77 1.83 285.94 3.5 285.31 40.68 286.36 79.16 287.57 117.64 286.28 156.12 285.36 194.6 287.1 233.08 286.16 270.47"/>
        <path class="cls-2" d="M120.77,69.66c1.91-8,3.17-15.35,5.07-23.35.76-3.18,1.55-6.45,3.45-9.11,1.9-2.66,5.18-4.6,8.38-3.94,3.85.8,6.02,4.78,7.78,8.3,4.86,9.76,10.36,19.2,16.45,28.24,1.84,2.73,3.97,5.59,7.12,6.54,4.87,1.46,9.64-2.22,13.39-5.64,9.59-8.74,19.18-17.48,28.77-26.21,1.29-1.18,2.62-2.38,4.24-3.04s3.61-.7,4.99.37c1.48,1.15,1.9,3.19,2.05,5.06,1.06,13.12-5.49,25.55-7.64,38.54-.52,3.16-.59,6.88,1.8,9,1.51,1.34,3.71,1.68,5.71,1.37,2.02-.32,12.46-4.45,17.18-5.71,3.6-.96,8.12-.46,10.05,2.73,1.92,3.17.38,7.24-1.36,10.51-7.91,14.86-38.01,51.13-42.91,55.75-4.9,4.63-9.53,11.34-7.14,17.63,1.71,4.5,6.39,6.99,10.09,10.07,3.7,3.09,6.72,8.55,3.98,12.52-1.94,2.81-5.79,3.36-9.2,3.67-16.47,1.46-32.94,2.93-49.42,4.39-3.83.34-8.77,1.82-8.76,5.66,0,1.56.93,2.99.99,4.54.16,3.75-4.28,5.74-7.92,6.67-28.62,7.34-57.69,12.93-86.99,16.73-2.1.27-4.39.49-6.17-.64-3.4-2.17-2.52-7.45-.39-10.88,2.13-3.43,21.77-41.98,27.62-58.46.58-1.64,1.15-3.47.47-5.08-.93-2.2-3.65-2.88-6-3.28-7.05-1.21-14.1-2.42-21.16-3.62-2.89-.5-6.16-1.25-7.58-3.81-1.28-2.31-.46-5.34,1.27-7.35,1.73-2,4.19-3.2,6.59-4.31,12.31-5.67,38.02-18.58,46.64-22.41,7.59-3.37,15.22-7.59,19.89-14.46,7.49-11,6.11-26.35,8.65-36.99Z"/>
      </g>
    </g>
  </g>
</svg>